<?xml version="1.0" encoding="UTF-8"?>
<svg fill="none" version="1.1" viewBox="0 0 1265 1210" xmlns="http://www.w3.org/2000/svg"><g transform="matrix(-1,0,0,1,1264.6,0)" filter="url(#a)" opacity=".3"><path d="m464.57 564.68c-6.91 23.829-33.76 35.301-37.92 60.91-0.59 6.89-8.12 19.84-33.51 16.523-24.47 14.225-100.23-13.414-118.73 10.36-13.62 17.502-28.61 39.331-23.32 70.801 4.08 24.264 17.66 48.182 31.42 68.833 19.94 29.913 43.47 57.118 68.89 78.657 82.84 70.216 177.69 88.494 259.77 88.744 100.01 0.31 186.65-38.313 259.58-100.08 30.08-25.473 57.02-54.959 77.73-92.493 19.06-34.557 34.57-73.194 46.54-114.1 15.251-52.071 23.841-110.45 17.451-173.62-4.85-48.042-25.461-93.855-54.001-135.68-39-57.177-91.43-89.642-142.2-93.301-31.32-2.256-66.09 11.311-67.54 53.661-1.1 32.307 13.82 68.616 23.5 101.78 6.46 22.166 15.27 53.559 0.5 65.12-24.98 19.557-59.77 25.174-91.27 29.135-40.24 5.06-83.32-5.829-125.2-8.492-24.12-1.534-43.66 10.295-60.82 24.762-13.79 11.633-24.94 28.041-30.87 48.47z" fill="#ff1cf7" opacity=".5"/><path transform="matrix(-1,0,0,1,1264.6,0)" d="m464.57 564.68c-6.91 23.829-33.76 35.301-37.92 60.91-0.59 6.89-8.12 19.84-33.51 16.523-24.47 14.225-100.23-13.414-118.73 10.36-13.617 17.502-28.607 39.331-23.317 70.801 4.08 24.264 17.657 48.182 31.417 68.833 19.94 29.913 43.47 57.118 68.89 78.657 82.84 70.216 177.69 88.494 259.77 88.744 100.01 0.31 186.65-38.313 259.58-100.08 30.08-25.473 57.02-54.959 77.73-92.493 19.06-34.557 34.57-73.194 46.54-114.1 15.25-52.071 23.84-110.45 17.45-173.62-4.85-48.042-25.46-93.855-54-135.68-39-57.177-91.43-89.642-142.2-93.301-31.32-2.256-66.09 11.311-67.54 53.661-1.1 32.307 13.82 68.616 23.5 101.78 6.46 22.166 15.27 53.559 0.5 65.12-24.98 19.557-59.77 25.174-91.27 29.135-40.24 5.06-83.32-5.829-125.2-8.492-24.12-1.534-43.66 10.295-60.82 24.762-13.79 11.633-24.94 28.041-30.87 48.47z" fill="#0070f3" opacity=".5"/></g><defs><filter id="a" x="0" y="0" width="1264.6" height="1209.5" color-interpolation-filters="sRGB" filterUnits="userSpaceOnUse"><feFlood flood-opacity="0" result="BackgroundImageFix"/><feBlend in="SourceGraphic" in2="BackgroundImageFix" result="shape"/><feGaussianBlur result="effect1_foregroundBlur_577_931" stdDeviation="125"/></filter></defs></svg>
