<?xml version="1.0" encoding="UTF-8"?>
<svg fill="none" version="1.1" viewBox="0 0 2260 1397" xmlns="http://www.w3.org/2000/svg"><g stroke-opacity=".2" stroke-width="4"><path d="m1870.1 1001.2-39.2-602.23c-3.21-49.321-54.57-80.354-99.72-60.251l-382.13 170.13c-45.15 20.103-56.46 79.04-21.95 114.43l421.31 432.09c46.04 47.22 125.97 11.63 121.69-54.17z" opacity=".014493" stroke="url(#bq)"/><path d="m1830.4 1014-6.88-596.36c-0.58-49.455-50.27-83.189-96.44-65.464l-387.05 148.57c-46.17 17.724-60.53 76.046-27.86 113.18l393.93 447.79c43.5 49.46 125.06 18.15 124.3-47.72z" opacity=".028986" stroke="url(#bf)"/><path d="m1790.7 1025.8 24.7-588.79c2.07-49.448-45.81-85.794-92.88-70.5l-390.75 126.96c-47.07 15.294-64.45 72.843-33.71 111.63l366.07 461.83c40.86 51.56 123.82 24.6 126.57-41.13z" opacity=".043478" stroke="url(#au)"/><path d="m1750.9 1036.5 55.46-579.58c4.72-49.3-41.22-88.162-89.05-75.344l-393.28 105.38c-47.84 12.818-68.19 69.44-39.45 109.78l337.82 474.2c38.13 53.52 122.24 30.98 128.5-34.43z" opacity=".057971" stroke="url(#aj)"/><path d="m1711.1 1046.2 85.33-568.78c7.35-49.012-36.5-90.286-84.98-79.982l-394.61 83.878c-48.48 10.304-71.75 65.846-45.1 107.63l309.29 484.9c35.29 55.33 120.34 37.25 130.07-27.65z" opacity=".072464" stroke="url(#y)"/><path d="m1671.3 1054.8 114.21-556.46c9.97-48.583-31.68-92.159-80.66-84.4l-394.78 62.527c-48.99 7.759-75.13 62.071-50.63 105.19l280.57 493.94c32.38 57 118.11 43.42 131.29-20.8z" opacity=".086956" stroke="url(#n)"/><path d="m1631.6 1062.5 142.04-542.72c12.57-48.013-26.75-93.775-76.11-88.587l-393.8 41.391c-49.36 5.188-78.3 58.123-56.03 102.48l251.77 501.33c29.38 58.51 115.56 49.45 132.13-13.89z" opacity=".10145" stroke="url(#d)"/><path d="m1592.2 1069.2 168.74-527.61c15.13-47.306-21.74-95.129-71.34-92.53l-391.7 20.528c-49.6 2.6-81.27 54.015-61.28 99.481l222.96 507.08c26.32 59.86 112.7 55.33 132.62-6.95z" opacity=".11594" stroke="url(#c)"/><path d="m1552.9 1074.9 194.25-511.22c17.65-46.463-16.67-96.218-66.37-96.218h-388.5c-49.7 0-84.02 49.755-66.37 96.218l194.25 511.22c23.19 61.05 109.55 61.05 132.74 0z" opacity=".13044" stroke="url(#b)"/><path d="m1513.8 1079.6 218.51-493.64c20.13-45.485-11.53-97.038-61.21-99.642l-384.22-20.136c-49.67-2.603-86.56 45.358-71.29 92.698l165.72 513.78c20.01 62.06 106.1 66.57 132.49 6.94z" opacity=".14493" stroke="url(#a)"/><path d="m1475.1 1083.5 241.47-474.94c22.56-44.374-6.36-97.585-55.87-102.79l-378.91-39.825c-49.51-5.203-88.86 40.832-76.02 88.927l137.45 514.76c16.8 62.92 102.37 71.92 131.88 13.87z" opacity=".15942" stroke="url(#bp)"/><path d="m1436.8 1086.4 263.07-455.22c24.93-43.135-1.16-97.858-50.37-105.65l-372.59-59.013c-49.21-7.793-90.93 36.19-80.55 84.916l109.52 514.23c13.55 63.61 98.38 77.05 130.92 20.74z" opacity=".17391" stroke="url(#bo)"/><path d="m1398.8 1088.5 283.28-434.56c27.23-41.768 4.05-97.855-44.72-108.22l-365.31-77.65c-48.77-10.366-92.75 31.446-84.87 80.677l82.04 512.21c10.27 64.13 94.12 81.95 129.58 27.55z" opacity=".18841" stroke="url(#bn)"/><path d="m1361.3 1089.8 302.05-413.06c29.45-40.279 9.26-97.574-38.94-110.49l-357.1-95.687c-48.2-12.915-94.33 26.61-88.97 76.22l55.06 508.75c6.97 64.47 89.62 86.62 127.9 34.27z" opacity=".2029" stroke="url(#bm)"/><path d="m1324.3 1090.3 319.36-390.82c31.6-38.671 14.46-97.019-33.04-112.45l-348.01-113.08c-47.5-15.433-95.66 21.695-92.83 71.555l28.65 503.89c3.68 64.65 84.89 91.04 125.87 40.9z" opacity=".21739" stroke="url(#bl)"/><path d="m1287.8 1090 335.19-367.91c33.66-36.949 19.62-96.187-27.04-114.1l-338.09-129.78c-46.67-17.913-96.74 16.716-96.45 66.698l2.91 497.69c0.38 64.66 79.94 95.2 123.48 47.4z" opacity=".23188" stroke="url(#bk)"/><path d="m1251.8 1089.1 349.49-344.46c35.63-35.116 24.74-95.082-20.96-115.43l-327.37-145.75c-45.7-20.348-97.55 11.685-99.81 61.661l-22.12 490.21c-2.91 64.49 74.79 99.08 120.77 53.77z" opacity=".24638" stroke="url(#bj)"/><path d="m1216.4 1087.4 362.28-320.53c37.5-33.178 29.8-93.706-14.82-116.44l-315.9-160.96c-44.62-22.731-98.11 6.616-102.91 56.456l-46.37 481.49c-6.18 64.16 69.45 102.69 117.72 59.98z" opacity=".26087" stroke="url(#bi)"/><path d="m1181.6 1085.1 373.53-296.22c39.27-31.14 34.78-92.061-8.62-117.12l-303.75-175.37c-43.4-25.058-98.4 1.52-105.74 51.096l-69.77 471.6c-9.42 63.66 63.93 106.01 114.35 66.02z" opacity=".27536" stroke="url(#bh)"/><path d="m1147.4 1082.2 383.25-271.65c40.92-29.006 39.68-90.15-2.39-117.47l-290.96-188.95c-42.07-27.319-98.43-3.585-108.29 45.598l-92.28 460.61c-12.63 63 58.25 109.03 110.67 71.87z" opacity=".28986" stroke="url(#bg)"/><path d="m1113.9 1078.8 391.43-246.89c42.47-26.785 44.48-87.982 3.86-117.49l-277.59-201.68c-40.61-29.511-98.2-8.691-110.55 39.974l-113.85 448.57c-15.779 62.18 52.44 111.74 106.7 77.52z" opacity=".30435" stroke="url(#be)"/><path d="m1081.1 1074.9 398.1-222.05c43.89-24.48 49.15-85.558 10.09-117.18l-263.67-213.52c-39.06-31.626-97.7-13.78-112.52 34.24l-134.43 435.57c-18.884 61.186 46.5 114.14 102.43 82.946z" opacity=".31884" stroke="url(#bd)"/><path d="m1049 1070.5 403.26-197.2c45.19-22.098 53.7-82.885 16.31-116.54l-249.28-224.46c-37.38-33.66-96.95-18.842-114.2 28.41l-153.97 421.66c-21.926 60.049 40.457 116.22 97.88 88.139z" opacity=".33333" stroke="url(#bc)"/><path d="m1017.5 1065.7 406.91-172.44c46.36-19.647 58.11-79.972 22.5-115.58l-234.47-234.48c-35.61-35.605-95.93-23.86-115.58 22.502l-172.44 406.92c-24.899 58.756 34.321 117.98 93.079 93.076z" opacity=".34783" stroke="url(#bb)"/><path d="m986.83 1060.6 409.11-147.85c47.41-17.131 62.36-76.824 28.63-114.28l-219.3-243.56c-33.73-37.457-94.66-28.824-116.65 16.529l-189.81 391.42c-27.793 57.31 28.112 119.4 88.017 97.75z" opacity=".36232" stroke="url(#ba)"/><path d="m956.85 1055.1 409.87-123.53c48.31-14.56 66.45-73.45 34.69-112.66l-203.82-251.7c-31.75-39.211-93.13-33.719-117.41 10.508l-206.06 375.24c-30.603 55.733 21.847 120.5 82.723 102.15z" opacity=".37681" stroke="url(#az)"/><path d="m927.6 1049.3 409.24-99.552c49.08-11.939 70.35-69.859 40.66-110.72l-188.1-258.89c-29.69-40.862-91.34-38.533-117.86 4.454l-221.14 358.44c-33.321 54.009 15.546 121.27 77.208 106.27z" opacity=".3913" stroke="url(#ay)"/><path d="m899.1 1043.3 407.23-75.991c49.71-9.275 74.06-66.058 46.52-108.46l-172.17-265.12c-27.54-42.405-89.32-43.252-118.01-1.617l-235.06 341.12c-35.94 52.155 9.224 121.7 71.488 110.08z" opacity=".4058" stroke="url(#ax)"/><path d="m871.33 1037.1 403.91-52.928c50.19-6.577 77.57-62.061 52.27-105.9l-156.12-270.4c-25.31-43.836-87.05-47.865-117.84-7.688l-247.8 323.33c-38.452 50.174 2.902 121.8 65.58 113.58z" opacity=".42029" stroke="url(#aw)"/><path d="m844.3 1030.8 399.32-30.44c50.53-3.855 80.87-57.88 57.87-103.03l-139.98-274.72c-23.01-45.152-84.55-52.359-117.36-13.745l-259.34 305.16c-40.854 48.071-3.405 121.56 59.499 116.77z" opacity=".43478" stroke="url(#av)"/><path d="m818.01 1024.3 393.5-8.59c50.72-1.11 83.95-53.518 63.32-99.865l-123.82-278.09c-20.63-46.347-81.81-56.722-116.57-19.77l-269.69 286.68c-43.137 45.855-9.678 121 53.263 119.64z" opacity=".44928" stroke="url(#at)"/><path d="m792.45 1017.8 386.52 12.56c50.76 1.65 86.79-48.988 68.59-96.407l-107.68-280.52c-18.21-47.419-78.86-60.943-115.48-25.748l-278.84 267.96c-45.298 43.532-15.9 120.11 46.891 122.15z" opacity=".46377" stroke="url(#as)"/><path d="m767.61 1011.2 378.43 32.95c50.66 4.41 89.39-44.313 73.68-92.677l-91.64-282.03c-15.71-48.364-75.69-65.01-114.08-31.665l-286.79 249.08c-47.329 41.107-22.052 118.9 40.4 124.33z" opacity=".47826" stroke="url(#ar)"/><path d="m743.47 1004.7 369.3 52.51c50.41 7.16 91.75-39.49 78.57-88.672l-75.73-282.62c-13.17-49.18-72.31-68.913-112.38-37.502l-293.56 230.12c-49.228 38.588-28.119 117.37 33.808 126.17z" opacity=".49275" stroke="url(#aq)"/><path d="m720.04 998.26 359.17 71.188c50.01 9.91 93.85-34.54 83.26-84.405l-60.01-282.32c-10.6-49.864-68.74-72.641-110.39-43.247l-299.17 211.12c-50.99 35.984-34.083 115.52 27.134 127.66z" opacity=".50725" stroke="url(#ap)"/><path d="m697.28 991.89 348.15 88.958c49.45 12.63 95.68-29.48 87.7-79.9l-44.53-281.14c-7.98-50.415-64.97-76.185-108.1-48.885l-303.62 192.18c-52.61 33.301-39.928 113.37 20.397 128.78z" opacity=".52174" stroke="url(#ao)"/><path d="m675.19 985.65 336.27 105.76c48.75 15.33 97.25-24.32 91.91-75.15l-29.34-279.12c-5.34-50.83-61.02-79.535-105.52-54.399l-306.93 173.36c-54.085 30.548-45.638 110.92 13.616 129.55z" opacity=".53623" stroke="url(#an)"/><path d="m653.75 979.57 323.62 121.56c47.907 17.99 98.547-19.08 95.867-70.19l-14.48-276.26c-2.68-51.108-56.91-82.681-102.68-59.776l-309.14 154.71c-55.412 27.732-51.197 108.17 6.811 129.96z" opacity=".55072" stroke="url(#am)"/><path d="m632.93 973.69 310.26 136.31c46.92 20.62 99.558-13.75 99.558-65v-272.62c0-51.249-52.638-85.617-99.558-65.004l-310.26 136.31c-56.588 24.862-56.588 105.14 0 130.01z" opacity=".56522" stroke="url(#al)"/><path d="m612.72 968.04 296.28 150c45.787 23.18 100.28-8.38 102.97-59.63l14.06-268.21c2.68-51.251-48.22-88.334-96.179-70.066l-310.34 118.21c-57.613 21.945-61.8 101.85-6.797 129.69z" opacity=".57971" stroke="url(#ak)"/><path d="m593.08 962.64 281.75 162.61c44.514 25.69 100.73-2.96 106.1-54.08l27.648-263.07c5.37-51.113-43.655-90.824-92.537-74.95l-309.4 100.47c-58.483 18.991-66.817 98.287-13.561 129.02z" opacity=".5942" stroke="url(#ai)"/><path d="m574 957.53 266.74 174.1c43.102 28.13 100.88 2.48 108.93-48.35l40.744-257.25c8.052-50.837-38.974-93.081-88.659-79.645l-307.49 83.149c-59.197 16.007-71.625 94.478-20.273 128z" opacity=".6087" stroke="url(#ah)"/><path d="m555.45 952.72 251.34 184.47c41.556 30.5 100.74 7.95 111.46-42.48l53.301-250.76c10.717-50.421-34.176-95.099-84.546-84.138l-304.64 66.292c-59.754 13.004-76.212 90.431-26.912 126.62z" opacity=".62319" stroke="url(#ag)"/><path d="m537.41 948.25 235.61 193.71c39.88 32.78 100.31 13.4 113.67-36.47l65.288-243.66c13.362-49.869-29.278-96.873-80.209-88.418l-300.89 49.951c-60.156 9.987-80.566 86.16-33.463 124.89z" opacity=".63768" stroke="url(#af)"/><path d="m519.84 944.13 219.63 201.81c38.076 34.99 99.584 18.84 115.56-30.34l76.675-235.98c15.979-49.179-24.29-98.397-75.659-92.473l-296.3 34.171c-60.4 6.966-84.675 81.676-39.905 122.81z" opacity=".65217" stroke="url(#ae)"/><path d="m502.71 940.38 203.48 208.78c36.151 37.09 98.568 24.24 117.13-24.11l87.433-227.77c18.561-48.354-19.226-99.668-70.91-96.293l-290.92 18.993c-60.488 3.949-88.528 76.996-46.219 120.4z" opacity=".66667" stroke="url(#ad)"/><path d="m486 937.03 187.24 214.61c34.107 39.1 97.26 29.6 118.36-17.8l97.536-219.06c21.102-47.395-14.099-100.68-65.973-99.87l-284.78 4.457c-60.422 0.945-92.117 72.133-52.389 117.67z" opacity=".68116" stroke="url(#ac)"/><path d="m469.68 934.08 170.98 219.33c31.951 40.99 95.664 34.89 119.26-11.42l106.96-209.92c23.594-46.305-8.921-101.44-60.86-103.19l-277.94-9.404c-60.203-2.037-95.432 67.103-58.397 114.61z" opacity=".69565" stroke="url(#ab)"/><path d="m453.72 931.55 154.77 222.95c29.688 42.76 93.782 40.1 119.81-4.99l115.7-200.39c26.03-45.086-3.706-101.93-55.587-106.25l-270.46-22.558c-59.832-4.99-98.464 61.921-64.226 111.24z" opacity=".71014" stroke="url(#aa)"/><path d="m438.08 929.45 138.68 225.48c27.322 44.42 91.617 45.21 120.02 1.47l123.71-190.5c28.406-43.741 1.534-102.16-50.164-109.05l-262.39-34.976c-59.313-7.907-101.21 56.603-69.859 107.57z" opacity=".72464" stroke="url(#z)"/><path d="m422.74 927.79 122.78 226.95c24.863 45.96 89.175 50.22 119.89 7.95l131-180.31c30.713-42.273 6.783-102.12-44.608-111.56l-253.78-46.636c-58.647-10.777-103.65 51.168-75.28 103.62z" opacity=".73913" stroke="url(#x)"/><path d="m407.67 926.58 107.13 227.38c22.313 47.36 86.46 55.11 119.41 14.42l137.56-169.87c32.946-40.685 12.031-101.82-38.932-113.8l-244.69-57.516c-57.84-13.596-105.8 45.628-80.475 99.377z" opacity=".75362" stroke="url(#w)"/><path d="m392.83 925.82 91.812 226.82c19.682 48.62 83.478 59.85 118.58 20.87l143.36-159.23c35.099-38.977 17.264-101.25-33.149-115.74l-235.18-67.601c-56.893-16.353-107.64 40.005-85.427 94.877z" opacity=".76812" stroke="url(#v)"/><path d="m378.2 925.51 76.876 225.3c16.973 49.74 80.234 64.44 117.4 27.27l148.42-148.42c37.166-37.164 22.469-100.42-27.276-117.4l-225.3-76.875c-55.811-19.045-109.17 34.312-90.124 90.124z" opacity=".78261" stroke="url(#u)"/><path d="m363.74 925.66 62.381 222.85c14.198 50.72 76.739 68.86 115.88 33.62l152.72-137.51c39.142-35.24 27.631-99.34-21.327-118.76l-215.1-85.333c-54.601-21.66-110.39 28.571-94.553 85.136z" opacity=".7971" stroke="url(#t)"/><path d="m349.43 926.27 48.384 219.51c11.361 51.55 72.998 73.12 114.02 39.9l156.28-126.55c41.02-33.22 32.739-97.99-15.318-119.82l-204.66-92.967c-53.264-24.195-111.29 22.795-98.7 79.926z" opacity=".81159" stroke="url(#s)"/><path d="m335.23 927.33 34.938 215.35c8.471 52.22 69.02 77.16 111.82 46.07l159.08-115.57c42.796-31.1 37.781-96.392-9.262-120.58l-194.02-99.775c-51.807-26.643-111.88 17.006-102.55 74.51z" opacity=".82609" stroke="url(#r)"/><path d="m321.13 928.84 22.09 210.41c5.536 52.72 64.815 81 109.28 52.13l161.14-104.65c44.466-28.87 42.743-94.529-3.176-121.03l-183.23-105.76c-50.237-28.996-112.16 11.218-106.1 68.906z" opacity=".84058" stroke="url(#q)"/><path d="m307.09 930.8 9.886 204.72c2.563 53.08 60.394 84.64 106.42 58.07l162.46-93.8c46.024-26.58 47.613-92.43 2.925-121.2l-172.35-110.92c-48.557-31.251-112.13 5.451-109.34 63.129z" opacity=".85507" stroke="url(#p)"/><path d="m293.09 933.2-1.632 198.36c-0.438 53.27 55.765 88.03 103.23 63.85l163.07-83.09c47.465-24.19 52.379-90.09 9.025-121.05l-161.44-115.28c-46.776-33.401-111.78-0.278-112.26 57.198z" opacity=".86956" stroke="url(#o)"/><path d="m279.1 936.02-12.428 191.39c-3.461 53.29 50.941 91.18 99.729 69.46l162.98-72.56c48.788-21.72 57.031-87.5 15.111-120.59l-150.55-118.83c-44.9-35.441-111.13-5.952-114.84 51.13z" opacity=".88406" stroke="url(#m)"/><path d="m265.1 939.27-22.47 183.85c-6.495 53.15 45.934 94.09 95.92 74.9l162.19-62.26c49.986-19.19 61.555-84.69 21.166-119.84l-139.72-121.6c-42.936-37.366-110.18-11.552-117.09 44.945z" opacity=".89855" stroke="url(#l)"/><path d="m251.06 942.92-31.725 175.82c-9.533 52.83 40.755 96.72 91.812 80.13l160.74-52.22c51.057-16.59 65.943-81.66 27.177-118.8l-129.01-123.59c-40.889-39.173-108.93-17.064-118.99 38.661z" opacity=".91304" stroke="url(#k)"/><path d="m236.97 946.97-40.172 167.35c-12.565 52.35 35.417 99.09 87.415 85.16l158.64-42.51c51.998-13.93 70.181-78.4 33.127-117.45l-118.47-124.85c-38.769-40.856-107.4-22.468-120.54 32.299z" opacity=".92754" stroke="url(#j)"/><path d="m222.8 951.41-47.789 158.51c-15.583 51.68 29.934 101.17 82.739 89.94l155.92-33.14c52.805-11.22 74.261-74.94 39.003-115.82l-108.13-125.37c-36.582-42.414-105.58-27.75-121.74 25.877z" opacity=".94203" stroke="url(#i)"/><path d="m208.54 956.21-54.562 149.37c-18.578 50.85 24.32 102.95 77.796 94.48l152.61-24.17c53.477-8.47 78.175-71.27 44.791-113.9l-98.048-125.2c-34.336-43.844-103.48-32.892-122.59 19.416z" opacity=".95652" stroke="url(#h)"/><path d="m194.16 961.37-60.478 139.98c-21.539 49.85 18.589 104.45 72.599 98.77l148.74-15.63c54.01-5.68 81.911-67.42 50.477-111.71l-88.259-124.35c-32.04-45.141-101.12-37.88-123.08 12.936z" opacity=".97101" stroke="url(#g)"/><path d="m179.66 966.87-65.529 130.42c-24.459 48.68 12.754 105.63 67.157 102.78l144.33-7.57c54.404-2.85 85.46-63.38 56.047-109.23l-78.803-122.86c-29.701-46.305-98.506-42.699-123.2 6.456z" opacity=".98551" stroke="url(#f)"/><path d="m165.01 972.69-69.715 120.75c-27.328 47.33 6.8319 106.5 61.488 106.5h139.43c54.656 0 88.816-59.17 61.488-106.5l-69.715-120.75c-27.328-47.334-95.648-47.334-122.98 0z" stroke="url(#e)"/></g><defs><linearGradient id="bq" x1="1884.9" x2="1406.8" y1="1198.2" y2="124.35" gradientUnits="userSpaceOnUse"><stop stop-color="#FF1CF7" offset="0"/><stop stop-color="#00B0FF" stop-opacity=".1" offset="1"/></linearGradient><linearGradient id="bf" x1="1834.7" x2="1417.2" y1="1210.9" y2="123.17" gradientUnits="userSpaceOnUse"><stop stop-color="#FF1CF7" offset="0"/><stop stop-color="#00B0FF" stop-opacity=".1" offset="1"/></linearGradient><linearGradient id="au" x1="1784.5" x2="1427.6" y1="1222" y2="123.73" gradientUnits="userSpaceOnUse"><stop stop-color="#FF1CF7" offset="0"/><stop stop-color="#00B0FF" stop-opacity=".1" offset="1"/></linearGradient><linearGradient id="aj" x1="1734.2" x2="1438.1" y1="1231.4" y2="126.03" gradientUnits="userSpaceOnUse"><stop stop-color="#FF1CF7" offset="0"/><stop stop-color="#00B0FF" stop-opacity=".1" offset="1"/></linearGradient><linearGradient id="y" x1="1684.1" x2="1448.4" y1="1239.2" y2="130.04" gradientUnits="userSpaceOnUse"><stop stop-color="#FF1CF7" offset="0"/><stop stop-color="#00B0FF" stop-opacity=".1" offset="1"/></linearGradient><linearGradient id="n" x1="1634.2" x2="1458.4" y1="1245.5" y2="135.74" gradientUnits="userSpaceOnUse"><stop stop-color="#FF1CF7" offset="0"/><stop stop-color="#00B0FF" stop-opacity=".1" offset="1"/></linearGradient><linearGradient id="d" x1="1584.6" x2="1468.2" y1="1250.2" y2="143.11" gradientUnits="userSpaceOnUse"><stop stop-color="#FF1CF7" offset="0"/><stop stop-color="#00B0FF" stop-opacity=".1" offset="1"/></linearGradient><linearGradient id="c" x1="1535.3" x2="1477.6" y1="1253.5" y2="152.11" gradientUnits="userSpaceOnUse"><stop stop-color="#FF1CF7" offset="0"/><stop stop-color="#00B0FF" stop-opacity=".1" offset="1"/></linearGradient><linearGradient id="b" x1="1486.5" x2="1486.5" y1="1255.2" y2="162.7" gradientUnits="userSpaceOnUse"><stop stop-color="#FF1CF7" offset="0"/><stop stop-color="#00B0FF" stop-opacity=".1" offset="1"/></linearGradient><linearGradient id="a" x1="1438.2" x2="1494.8" y1="1255.5" y2="174.85" gradientUnits="userSpaceOnUse"><stop stop-color="#FF1CF7" offset="0"/><stop stop-color="#00B0FF" stop-opacity=".1" offset="1"/></linearGradient><linearGradient id="bp" x1="1390.5" x2="1502.5" y1="1254.4" y2="188.49" gradientUnits="userSpaceOnUse"><stop stop-color="#FF1CF7" offset="0"/><stop stop-color="#00B0FF" stop-opacity=".1" offset="1"/></linearGradient><linearGradient id="bo" x1="1343.5" x2="1509.5" y1="1251.9" y2="203.6" gradientUnits="userSpaceOnUse"><stop stop-color="#FF1CF7" offset="0"/><stop stop-color="#00B0FF" stop-opacity=".1" offset="1"/></linearGradient><linearGradient id="bn" x1="1297.2" x2="1515.7" y1="1248.1" y2="220.1" gradientUnits="userSpaceOnUse"><stop stop-color="#FF1CF7" offset="0"/><stop stop-color="#00B0FF" stop-opacity=".1" offset="1"/></linearGradient><linearGradient id="bm" x1="1251.7" x2="1521" y1="1243.1" y2="237.95" gradientUnits="userSpaceOnUse"><stop stop-color="#FF1CF7" offset="0"/><stop stop-color="#00B0FF" stop-opacity=".1" offset="1"/></linearGradient><linearGradient id="bl" x1="1207.1" x2="1525.4" y1="1236.9" y2="257.08" gradientUnits="userSpaceOnUse"><stop stop-color="#FF1CF7" offset="0"/><stop stop-color="#00B0FF" stop-opacity=".1" offset="1"/></linearGradient><linearGradient id="bk" x1="1163.4" x2="1528.8" y1="1229.5" y2="277.42" gradientUnits="userSpaceOnUse"><stop stop-color="#FF1CF7" offset="0"/><stop stop-color="#00B0FF" stop-opacity=".1" offset="1"/></linearGradient><linearGradient id="bj" x1="1120.6" x2="1531.2" y1="1221.1" y2="298.92" gradientUnits="userSpaceOnUse"><stop stop-color="#FF1CF7" offset="0"/><stop stop-color="#00B0FF" stop-opacity=".1" offset="1"/></linearGradient><linearGradient id="bi" x1="1078.9" x2="1532.5" y1="1211.7" y2="321.49" gradientUnits="userSpaceOnUse"><stop stop-color="#FF1CF7" offset="0"/><stop stop-color="#00B0FF" stop-opacity=".1" offset="1"/></linearGradient><linearGradient id="bh" x1="1038.2" x2="1532.6" y1="1201.4" y2="345.08" gradientUnits="userSpaceOnUse"><stop stop-color="#FF1CF7" offset="0"/><stop stop-color="#00B0FF" stop-opacity=".1" offset="1"/></linearGradient><linearGradient id="bg" x1="998.7" x2="1531.6" y1="1190.1" y2="369.6" gradientUnits="userSpaceOnUse"><stop stop-color="#FF1CF7" offset="0"/><stop stop-color="#00B0FF" stop-opacity=".1" offset="1"/></linearGradient><linearGradient id="be" x1="960.3" x2="1529.3" y1="1178.1" y2="394.98" gradientUnits="userSpaceOnUse"><stop stop-color="#FF1CF7" offset="0"/><stop stop-color="#00B0FF" stop-opacity=".1" offset="1"/></linearGradient><linearGradient id="bd" x1="923.07" x2="1525.7" y1="1165.3" y2="421.14" gradientUnits="userSpaceOnUse"><stop stop-color="#FF1CF7" offset="0"/><stop stop-color="#00B0FF" stop-opacity=".1" offset="1"/></linearGradient><linearGradient id="bc" x1="887.04" x2="1520.9" y1="1151.9" y2="448" gradientUnits="userSpaceOnUse"><stop stop-color="#FF1CF7" offset="0"/><stop stop-color="#00B0FF" stop-opacity=".1" offset="1"/></linearGradient><linearGradient id="bb" x1="852.24" x2="1514.7" y1="1138" y2="475.49" gradientUnits="userSpaceOnUse"><stop stop-color="#FF1CF7" offset="0"/><stop stop-color="#00B0FF" stop-opacity=".1" offset="1"/></linearGradient><linearGradient id="ba" x1="818.69" x2="1507.2" y1="1123.5" y2="503.52" gradientUnits="userSpaceOnUse"><stop stop-color="#FF1CF7" offset="0"/><stop stop-color="#00B0FF" stop-opacity=".1" offset="1"/></linearGradient><linearGradient id="az" x1="786.39" x2="1498.3" y1="1108.5" y2="532.01" gradientUnits="userSpaceOnUse"><stop stop-color="#FF1CF7" offset="0"/><stop stop-color="#00B0FF" stop-opacity=".1" offset="1"/></linearGradient><linearGradient id="ay" x1="755.36" x2="1488.1" y1="1093.3" y2="560.88" gradientUnits="userSpaceOnUse"><stop stop-color="#FF1CF7" offset="0"/><stop stop-color="#00B0FF" stop-opacity=".1" offset="1"/></linearGradient><linearGradient id="ax" x1="725.61" x2="1476.5" y1="1077.7" y2="590.05" gradientUnits="userSpaceOnUse"><stop stop-color="#FF1CF7" offset="0"/><stop stop-color="#00B0FF" stop-opacity=".1" offset="1"/></linearGradient><linearGradient id="aw" x1="697.14" x2="1463.6" y1="1061.9" y2="619.45" gradientUnits="userSpaceOnUse"><stop stop-color="#FF1CF7" offset="0"/><stop stop-color="#00B0FF" stop-opacity=".1" offset="1"/></linearGradient><linearGradient id="av" x1="669.94" x2="1449.2" y1="1046" y2="648.98" gradientUnits="userSpaceOnUse"><stop stop-color="#FF1CF7" offset="0"/><stop stop-color="#00B0FF" stop-opacity=".1" offset="1"/></linearGradient><linearGradient id="at" x1="644.01" x2="1433.5" y1="1030.1" y2="678.58" gradientUnits="userSpaceOnUse"><stop stop-color="#FF1CF7" offset="0"/><stop stop-color="#00B0FF" stop-opacity=".1" offset="1"/></linearGradient><linearGradient id="as" x1="619.33" x2="1416.5" y1="1014.2" y2="708.16" gradientUnits="userSpaceOnUse"><stop stop-color="#FF1CF7" offset="0"/><stop stop-color="#00B0FF" stop-opacity=".1" offset="1"/></linearGradient><linearGradient id="ar" x1="595.9" x2="1398.1" y1="998.3" y2="737.65" gradientUnits="userSpaceOnUse"><stop stop-color="#FF1CF7" offset="0"/><stop stop-color="#00B0FF" stop-opacity=".1" offset="1"/></linearGradient><linearGradient id="aq" x1="573.68" x2="1378.4" y1="982.61" y2="766.98" gradientUnits="userSpaceOnUse"><stop stop-color="#FF1CF7" offset="0"/><stop stop-color="#00B0FF" stop-opacity=".1" offset="1"/></linearGradient><linearGradient id="ap" x1="552.66" x2="1357.4" y1="967.13" y2="796.07" gradientUnits="userSpaceOnUse"><stop stop-color="#FF1CF7" offset="0"/><stop stop-color="#00B0FF" stop-opacity=".1" offset="1"/></linearGradient><linearGradient id="ao" x1="532.82" x2="1335.2" y1="951.93" y2="824.85" gradientUnits="userSpaceOnUse"><stop stop-color="#FF1CF7" offset="0"/><stop stop-color="#00B0FF" stop-opacity=".1" offset="1"/></linearGradient><linearGradient id="an" x1="514.12" x2="1311.7" y1="937.09" y2="853.26" gradientUnits="userSpaceOnUse"><stop stop-color="#FF1CF7" offset="0"/><stop stop-color="#00B0FF" stop-opacity=".1" offset="1"/></linearGradient><linearGradient id="am" x1="496.52" x2="1287" y1="922.66" y2="881.23" gradientUnits="userSpaceOnUse"><stop stop-color="#FF1CF7" offset="0"/><stop stop-color="#00B0FF" stop-opacity=".1" offset="1"/></linearGradient><linearGradient id="al" x1="480" x2="1261.2" y1="908.69" y2="908.69" gradientUnits="userSpaceOnUse"><stop stop-color="#FF1CF7" offset="0"/><stop stop-color="#00B0FF" stop-opacity=".1" offset="1"/></linearGradient><linearGradient id="ak" x1="464.51" x2="1234.3" y1="895.25" y2="935.59" gradientUnits="userSpaceOnUse"><stop stop-color="#FF1CF7" offset="0"/><stop stop-color="#00B0FF" stop-opacity=".1" offset="1"/></linearGradient><linearGradient id="ai" x1="450.01" x2="1206.3" y1="882.38" y2="961.87" gradientUnits="userSpaceOnUse"><stop stop-color="#FF1CF7" offset="0"/><stop stop-color="#00B0FF" stop-opacity=".1" offset="1"/></linearGradient><linearGradient id="ah" x1="436.45" x2="1177.3" y1="870.14" y2="987.48" gradientUnits="userSpaceOnUse"><stop stop-color="#FF1CF7" offset="0"/><stop stop-color="#00B0FF" stop-opacity=".1" offset="1"/></linearGradient><linearGradient id="ag" x1="423.79" x2="1147.4" y1="858.57" y2="1012.4" gradientUnits="userSpaceOnUse"><stop stop-color="#FF1CF7" offset="0"/><stop stop-color="#00B0FF" stop-opacity=".1" offset="1"/></linearGradient><linearGradient id="af" x1="411.98" x2="1116.5" y1="847.72" y2="1036.5" gradientUnits="userSpaceOnUse"><stop stop-color="#FF1CF7" offset="0"/><stop stop-color="#00B0FF" stop-opacity=".1" offset="1"/></linearGradient><linearGradient id="ae" x1="400.96" x2="1084.8" y1="837.62" y2="1059.8" gradientUnits="userSpaceOnUse"><stop stop-color="#FF1CF7" offset="0"/><stop stop-color="#00B0FF" stop-opacity=".1" offset="1"/></linearGradient><linearGradient id="ad" x1="390.68" x2="1052.2" y1="828.31" y2="1082.2" gradientUnits="userSpaceOnUse"><stop stop-color="#FF1CF7" offset="0"/><stop stop-color="#00B0FF" stop-opacity=".1" offset="1"/></linearGradient><linearGradient id="ac" x1="381.09" x2="1019" y1="819.82" y2="1103.8" gradientUnits="userSpaceOnUse"><stop stop-color="#FF1CF7" offset="0"/><stop stop-color="#00B0FF" stop-opacity=".1" offset="1"/></linearGradient><linearGradient id="ab" x1="372.13" x2="985.02" y1="812.19" y2="1124.5" gradientUnits="userSpaceOnUse"><stop stop-color="#FF1CF7" offset="0"/><stop stop-color="#00B0FF" stop-opacity=".1" offset="1"/></linearGradient><linearGradient id="aa" x1="363.74" x2="950.46" y1="805.44" y2="1144.2" gradientUnits="userSpaceOnUse"><stop stop-color="#FF1CF7" offset="0"/><stop stop-color="#00B0FF" stop-opacity=".1" offset="1"/></linearGradient><linearGradient id="z" x1="355.87" x2="915.36" y1="799.59" y2="1162.9" gradientUnits="userSpaceOnUse"><stop stop-color="#FF1CF7" offset="0"/><stop stop-color="#00B0FF" stop-opacity=".1" offset="1"/></linearGradient><linearGradient id="x" x1="348.45" x2="879.76" y1="794.66" y2="1180.7" gradientUnits="userSpaceOnUse"><stop stop-color="#FF1CF7" offset="0"/><stop stop-color="#00B0FF" stop-opacity=".1" offset="1"/></linearGradient><linearGradient id="w" x1="341.42" x2="843.74" y1="790.66" y2="1197.4" gradientUnits="userSpaceOnUse"><stop stop-color="#FF1CF7" offset="0"/><stop stop-color="#00B0FF" stop-opacity=".1" offset="1"/></linearGradient><linearGradient id="v" x1="334.73" x2="807.36" y1="787.6" y2="1213.2" gradientUnits="userSpaceOnUse"><stop stop-color="#FF1CF7" offset="0"/><stop stop-color="#00B0FF" stop-opacity=".1" offset="1"/></linearGradient><linearGradient id="u" x1="328.31" x2="770.68" y1="785.5" y2="1227.9" gradientUnits="userSpaceOnUse"><stop stop-color="#FF1CF7" offset="0"/><stop stop-color="#00B0FF" stop-opacity=".1" offset="1"/></linearGradient><linearGradient id="t" x1="322.1" x2="733.78" y1="784.35" y2="1241.6" gradientUnits="userSpaceOnUse"><stop stop-color="#FF1CF7" offset="0"/><stop stop-color="#00B0FF" stop-opacity=".1" offset="1"/></linearGradient><linearGradient id="s" x1="316.05" x2="696.7" y1="784.15" y2="1254.2" gradientUnits="userSpaceOnUse"><stop stop-color="#FF1CF7" offset="0"/><stop stop-color="#00B0FF" stop-opacity=".1" offset="1"/></linearGradient><linearGradient id="r" x1="310.1" x2="659.53" y1="784.91" y2="1265.9" gradientUnits="userSpaceOnUse"><stop stop-color="#FF1CF7" offset="0"/><stop stop-color="#00B0FF" stop-opacity=".1" offset="1"/></linearGradient><linearGradient id="q" x1="304.18" x2="622.32" y1="786.6" y2="1276.5" gradientUnits="userSpaceOnUse"><stop stop-color="#FF1CF7" offset="0"/><stop stop-color="#00B0FF" stop-opacity=".1" offset="1"/></linearGradient><linearGradient id="p" x1="298.25" x2="585.12" y1="789.23" y2="1286.1" gradientUnits="userSpaceOnUse"><stop stop-color="#FF1CF7" offset="0"/><stop stop-color="#00B0FF" stop-opacity=".1" offset="1"/></linearGradient><linearGradient id="o" x1="292.24" x2="548" y1="792.78" y2="1294.7" gradientUnits="userSpaceOnUse"><stop stop-color="#FF1CF7" offset="0"/><stop stop-color="#00B0FF" stop-opacity=".1" offset="1"/></linearGradient><linearGradient id="m" x1="286.1" x2="511.02" y1="797.23" y2="1302.4" gradientUnits="userSpaceOnUse"><stop stop-color="#FF1CF7" offset="0"/><stop stop-color="#00B0FF" stop-opacity=".1" offset="1"/></linearGradient><linearGradient id="l" x1="279.79" x2="474.24" y1="802.56" y2="1309.1" gradientUnits="userSpaceOnUse"><stop stop-color="#FF1CF7" offset="0"/><stop stop-color="#00B0FF" stop-opacity=".1" offset="1"/></linearGradient><linearGradient id="k" x1="273.24" x2="437.71" y1="808.74" y2="1314.9" gradientUnits="userSpaceOnUse"><stop stop-color="#FF1CF7" offset="0"/><stop stop-color="#00B0FF" stop-opacity=".1" offset="1"/></linearGradient><linearGradient id="j" x1="266.41" x2="401.48" y1="815.76" y2="1319.8" gradientUnits="userSpaceOnUse"><stop stop-color="#FF1CF7" offset="0"/><stop stop-color="#00B0FF" stop-opacity=".1" offset="1"/></linearGradient><linearGradient id="i" x1="259.25" x2="365.59" y1="823.58" y2="1323.9" gradientUnits="userSpaceOnUse"><stop stop-color="#FF1CF7" offset="0"/><stop stop-color="#00B0FF" stop-opacity=".1" offset="1"/></linearGradient><linearGradient id="h" x1="251.72" x2="330.11" y1="832.16" y2="1327.1" gradientUnits="userSpaceOnUse"><stop stop-color="#FF1CF7" offset="0"/><stop stop-color="#00B0FF" stop-opacity=".1" offset="1"/></linearGradient><linearGradient id="g" x1="243.78" x2="295.08" y1="841.48" y2="1329.5" gradientUnits="userSpaceOnUse"><stop stop-color="#FF1CF7" offset="0"/><stop stop-color="#00B0FF" stop-opacity=".1" offset="1"/></linearGradient><linearGradient id="f" x1="235.38" x2="260.52" y1="851.51" y2="1331.2" gradientUnits="userSpaceOnUse"><stop stop-color="#FF1CF7" offset="0"/><stop stop-color="#00B0FF" stop-opacity=".1" offset="1"/></linearGradient><linearGradient id="e" x1="226.5" x2="226.5" y1="862.19" y2="1332.2" gradientUnits="userSpaceOnUse"><stop stop-color="#FF1CF7" offset="0"/><stop stop-color="#00B0FF" stop-opacity=".1" offset="1"/></linearGradient></defs></svg>
